<svg width="36" height="36" viewBox="0 0 36 36" fill="none" xmlns="http://www.w3.org/2000/svg">
<path d="M24 21.75H25.5V23.25H10.5V21.75H12V16.5C12 14.9087 12.6321 13.3826 13.7574 12.2574C14.8826 11.1321 16.4087 10.5 18 10.5C19.5913 10.5 21.1174 11.1321 22.2426 12.2574C23.3679 13.3826 24 14.9087 24 16.5V21.75ZM22.5 21.75V16.5C22.5 15.3065 22.0259 14.1619 21.182 13.318C20.3381 12.4741 19.1935 12 18 12C16.8065 12 15.6619 12.4741 14.818 13.318C13.9741 14.1619 13.5 15.3065 13.5 16.5V21.75H22.5ZM15.75 24.75H20.25V26.25H15.75V24.75Z" fill="#1EB06A"/>
</svg>
