<svg width="60" height="60" viewBox="0 0 60 60" fill="none" xmlns="http://www.w3.org/2000/svg">
<rect opacity="0.05" width="60" height="60" rx="20" fill="#2051A3"/>
<path d="M38 35H40V37H20V35H22V28C22 25.8783 22.8429 23.8434 24.3431 22.3431C25.8434 20.8429 27.8783 20 30 20C32.1217 20 34.1566 20.8429 35.6569 22.3431C37.1571 23.8434 38 25.8783 38 28V35ZM36 35V28C36 26.4087 35.3679 24.8826 34.2426 23.7574C33.1174 22.6321 31.5913 22 30 22C28.4087 22 26.8826 22.6321 25.7574 23.7574C24.6321 24.8826 24 26.4087 24 28V35H36ZM27 39H33V41H27V39Z" fill="#2051A3"/>
</svg>
